# xmcd CD database file
# Copyright (C) 1996 Ti Kan
#
# Track frame offsets:
#	150
#	15332
#	34266
#	50009
#	64958
#	84611
#	99145
#	117084
#	132151
#	152727
#	173871
# Disc length: 2605 seconds
#
# Revision: 2
# Processed by: cddbd v1.5.1PL0 Copyright (c) Steve Scherf et al.
# Submitted via: CDCOPY 4.900
#
DISCID=860a2b0b
DTITLE=Julie Roberts - Julie Roberts
DYEAR=1900
DGENRE=
TTITLE0=Julie Roberts - You Ain't Down Home
TTITLE1=Julie Roberts - Break Down Here
TTITLE2=Julie Roberts - Pot of Gold
TTITLE3=Julie Roberts - Unlove Me
TTITLE4=Julie Roberts - Just 'Cause We Can
TTITLE5=Julie Roberts - Wake Up Older
TTITLE6=Julie Roberts - If You Had Called Yesterday
TTITLE7=Julie Roberts - No Way Out
TTITLE8=Julie Roberts - I Can't Get Over You
TTITLE9=Julie Roberts - Rain on a Tin Roof
TTITLE10=Julie Roberts - The Chance
EXTD=
EXTT0=
EXTT1=
EXTT2=
EXTT3=
EXTT4=
EXTT5=
EXTT6=
EXTT7=
EXTT8=
EXTT9=
EXTT10=
PLAYORDER=
